# xmcd
#
# Track frame offsets:
#	150
#	9595
#	23861
#	37356
#	51498
#	64710
#	78653
#	93091
#	107057
#	118530
#
# Disc length: 1764 seconds
#
# Revision: 0
# Processed by: cddbd v1.5.2PL0 Copyright (c) Steve Scherf et al.
# Submitted via: EZCDAudioConverter 1.0.8.1
#
DISCID=8206e20a
DTITLE=Lucha Villa - Y 8 Grandes Reinas de la Canción Ranchera
DYEAR=1900
DGENRE=Ranchero
TTITLE0=Amanecí en tus brazos - Lucha Villa
TTITLE1=No Volvere - Amalia Mendoza
TTITLE2=Cuenta Perdída - Lola Beltrán
TTITLE3=La Noche y Tú - María de Lourdes
TTITLE4=La Piedra - Lucha Moreno
TTITLE5=Ayudame Díos Mío - Ma. Elena Sandoval
TTITLE6=Cartas Marcadas - Chavela Vargas
TTITLE7=La Noche de Mi Mal - Adela Canales
TTITLE8=La Ley del Norte - Lupe Mejía "La Yaqui"
TTITLE9=Corazón, Corazón - Lucha Villa
EXTD=
EXTT0=
EXTT1=
EXTT2=
EXTT3=
EXTT4=
EXTT5=
EXTT6=
EXTT7=
EXTT8=
EXTT9=
PLAYORDER=
